<svg xmlns="http://www.w3.org/2000/svg" viewBox="0 0 279.36 279.36">
    <defs>
        <style>.cls-1{fill:#231f20;}</style>
    </defs>
    <title>Asset 1</title>
    <g id="Layer_2" data-name="Layer 2">
        <g id="curved">
            <path class="cls-1"
                  d="M279.36,139.68A139.68,139.68,0,1,0,139.68,279.36,139.68,139.68,0,0,0,279.36,139.68Zm-19.25,0a119.86,119.86,0,0,1-22.85,70.58L211,184l14.18-14.18L210.47,155.1l-14.19,14.18L167,140h35.27V119.2H150.07V107.42h52.17V86.65H150.07V74.87h52.17V54.1H150.07V19.7A120.43,120.43,0,0,1,260.11,139.68ZM129.3,19.7V54.1H77.12V74.87H129.3V86.65H77.12v20.77H129.3V119.2H77.12V140h33.79L41.48,209.41A120.44,120.44,0,0,1,129.3,19.7ZM55,225.28l15-15a32.51,32.51,0,0,0,8,10.47c6.9,6,16.09,9,27.89,9a87,87,0,0,0,11.94-.88l-3.16-22.79c-10.44,1.45-17.9.53-21.57-2.66-2.45-2.14-3.89-6.13-4.3-11.88l50.19-50.19L223.64,226A120.41,120.41,0,0,1,55,225.28Z"/>
        </g>
    </g>
</svg>
